{
	"patcher" : 	{
		"fileversion" : 1,
		"appversion" : 		{
			"major" : 6,
			"minor" : 1,
			"revision" : 7,
			"architecture" : "x86"
		}
,
		"rect" : [ 389.0, 210.0, 1027.0, 541.0 ],
		"bglocked" : 0,
		"openinpresentation" : 1,
		"default_fontsize" : 12.0,
		"default_fontface" : 0,
		"default_fontname" : "Arial",
		"gridonopen" : 0,
		"gridsize" : [ 15.0, 15.0 ],
		"gridsnaponopen" : 0,
		"statusbarvisible" : 2,
		"toolbarvisible" : 1,
		"boxanimatetime" : 200,
		"imprint" : 0,
		"enablehscroll" : 1,
		"enablevscroll" : 1,
		"devicewidth" : 0.0,
		"description" : "",
		"digest" : "",
		"tags" : "",
		"boxes" : [ 			{
				"box" : 				{
					"fontface" : 1,
					"fontname" : "Arial",
					"fontsize" : 36.0,
					"frgb" : 0.0,
					"id" : "obj-1382",
					"maxclass" : "comment",
					"numinlets" : 1,
					"numoutlets" : 0,
					"patching_rect" : [ 87.104248, 18.0, 313.0, 47.0 ],
					"text" : "chocolate grinder"
				}

			}
, 			{
				"box" : 				{
					"comment" : "Audio out",
					"id" : "obj-9",
					"maxclass" : "outlet",
					"numinlets" : 1,
					"numoutlets" : 0,
					"patching_rect" : [ 23.0, 468.0, 25.0, 25.0 ]
				}

			}
, 			{
				"box" : 				{
					"comment" : "Audio in",
					"id" : "obj-6",
					"maxclass" : "inlet",
					"numinlets" : 0,
					"numoutlets" : 1,
					"outlettype" : [ "" ],
					"patching_rect" : [ 23.0, 27.0, 25.0, 25.0 ]
				}

			}
, 			{
				"box" : 				{
					"args" : [ 7 ],
					"id" : "obj-5",
					"maxclass" : "bpatcher",
					"name" : "tcg_abs.maxpat",
					"numinlets" : 1,
					"numoutlets" : 1,
					"outlettype" : [ "signal" ],
					"patching_rect" : [ 551.0, 264.0, 358.0, 106.0 ],
					"varname" : "tcg_abs[4]"
				}

			}
, 			{
				"box" : 				{
					"args" : [ 6 ],
					"id" : "obj-14",
					"maxclass" : "bpatcher",
					"name" : "tcg_abs.maxpat",
					"numinlets" : 1,
					"numoutlets" : 1,
					"outlettype" : [ "signal" ],
					"patching_rect" : [ 517.0, 237.0, 358.0, 106.0 ],
					"varname" : "tcg_abs[5]"
				}

			}
, 			{
				"box" : 				{
					"args" : [ 5 ],
					"id" : "obj-15",
					"maxclass" : "bpatcher",
					"name" : "tcg_abs.maxpat",
					"numinlets" : 1,
					"numoutlets" : 1,
					"outlettype" : [ "signal" ],
					"patching_rect" : [ 486.790405, 211.0, 358.0, 106.0 ],
					"varname" : "tcg_abs[6]"
				}

			}
, 			{
				"box" : 				{
					"args" : [ 4 ],
					"id" : "obj-16",
					"maxclass" : "bpatcher",
					"name" : "tcg_abs.maxpat",
					"numinlets" : 1,
					"numoutlets" : 1,
					"outlettype" : [ "signal" ],
					"patching_rect" : [ 465.0, 184.0, 358.0, 106.0 ],
					"varname" : "tcg_abs[7]"
				}

			}
, 			{
				"box" : 				{
					"args" : [ 3 ],
					"id" : "obj-12",
					"maxclass" : "bpatcher",
					"name" : "tcg_abs.maxpat",
					"numinlets" : 1,
					"numoutlets" : 1,
					"outlettype" : [ "signal" ],
					"patching_rect" : [ 97.5, 264.0, 358.0, 106.0 ],
					"varname" : "tcg_abs[2]"
				}

			}
, 			{
				"box" : 				{
					"args" : [ 2 ],
					"id" : "obj-13",
					"maxclass" : "bpatcher",
					"name" : "tcg_abs.maxpat",
					"numinlets" : 1,
					"numoutlets" : 1,
					"outlettype" : [ "signal" ],
					"patching_rect" : [ 76.980774, 237.0, 358.0, 106.0 ],
					"varname" : "tcg_abs[3]"
				}

			}
, 			{
				"box" : 				{
					"args" : [ 1 ],
					"id" : "obj-4",
					"maxclass" : "bpatcher",
					"name" : "tcg_abs.maxpat",
					"numinlets" : 1,
					"numoutlets" : 1,
					"outlettype" : [ "signal" ],
					"patching_rect" : [ 51.0, 211.0, 358.0, 106.0 ],
					"presentation" : 1,
					"presentation_rect" : [ 5.0, 113.0, 358.0, 106.0 ],
					"varname" : "tcg_abs[1]"
				}

			}
, 			{
				"box" : 				{
					"args" : [ 0 ],
					"id" : "obj-1",
					"maxclass" : "bpatcher",
					"name" : "tcg_abs.maxpat",
					"numinlets" : 1,
					"numoutlets" : 1,
					"outlettype" : [ "signal" ],
					"patching_rect" : [ 29.0, 184.0, 358.0, 106.0 ],
					"presentation" : 1,
					"presentation_rect" : [ 5.0, 6.0, 358.0, 106.0 ],
					"varname" : "tcg_abs"
				}

			}
, 			{
				"box" : 				{
					"color" : [ 0.501961, 1.0, 0.0, 1.0 ],
					"fontname" : "Arial",
					"fontsize" : 12.0,
					"id" : "obj-166",
					"maxclass" : "newobj",
					"numinlets" : 1,
					"numoutlets" : 1,
					"outlettype" : [ "bang" ],
					"patching_rect" : [ 499.980774, 39.386719, 60.0, 20.0 ],
					"text" : "loadbang"
				}

			}
, 			{
				"box" : 				{
					"fontname" : "Arial",
					"fontsize" : 12.0,
					"id" : "obj-10",
					"maxclass" : "message",
					"numinlets" : 2,
					"numoutlets" : 1,
					"outlettype" : [ "" ],
					"patching_rect" : [ 499.980774, 70.167847, 113.0, 18.0 ],
					"text" : "fill 1, apply hanning"
				}

			}
, 			{
				"box" : 				{
					"fontname" : "Arial",
					"fontsize" : 12.0,
					"id" : "obj-11",
					"maxclass" : "newobj",
					"numinlets" : 1,
					"numoutlets" : 2,
					"outlettype" : [ "float", "bang" ],
					"patching_rect" : [ 499.980774, 98.767822, 117.0, 20.0 ],
					"text" : "buffer~ hanning 500"
				}

			}
, 			{
				"box" : 				{
					"angle" : -90.0,
					"background" : 1,
					"bgcolor" : [ 0.329412, 0.34902, 0.4, 1.0 ],
					"border" : 1,
					"grad1" : [ 0.329412, 0.34902, 0.4, 0.396078 ],
					"grad2" : [ 0.176471, 0.188235, 0.219608, 0.403922 ],
					"id" : "obj-1263",
					"maxclass" : "panel",
					"mode" : 1,
					"numinlets" : 1,
					"numoutlets" : 0,
					"patching_rect" : [ 87.104248, 18.0, 313.0, 47.0 ],
					"presentation" : 1,
					"presentation_rect" : [ 1.23468, 1.0, 366.844482, 222.769104 ],
					"rounded" : 0
				}

			}
 ],
		"lines" : [ 			{
				"patchline" : 				{
					"destination" : [ "obj-9", 0 ],
					"disabled" : 0,
					"hidden" : 0,
					"source" : [ "obj-1", 0 ]
				}

			}
, 			{
				"patchline" : 				{
					"destination" : [ "obj-11", 0 ],
					"disabled" : 0,
					"hidden" : 0,
					"source" : [ "obj-10", 0 ]
				}

			}
, 			{
				"patchline" : 				{
					"destination" : [ "obj-9", 0 ],
					"disabled" : 0,
					"hidden" : 0,
					"source" : [ "obj-12", 0 ]
				}

			}
, 			{
				"patchline" : 				{
					"destination" : [ "obj-9", 0 ],
					"disabled" : 0,
					"hidden" : 0,
					"source" : [ "obj-13", 0 ]
				}

			}
, 			{
				"patchline" : 				{
					"destination" : [ "obj-9", 0 ],
					"disabled" : 0,
					"hidden" : 0,
					"source" : [ "obj-14", 0 ]
				}

			}
, 			{
				"patchline" : 				{
					"destination" : [ "obj-9", 0 ],
					"disabled" : 0,
					"hidden" : 0,
					"source" : [ "obj-15", 0 ]
				}

			}
, 			{
				"patchline" : 				{
					"destination" : [ "obj-9", 0 ],
					"disabled" : 0,
					"hidden" : 0,
					"source" : [ "obj-16", 0 ]
				}

			}
, 			{
				"patchline" : 				{
					"destination" : [ "obj-10", 0 ],
					"disabled" : 0,
					"hidden" : 0,
					"source" : [ "obj-166", 0 ]
				}

			}
, 			{
				"patchline" : 				{
					"destination" : [ "obj-9", 0 ],
					"disabled" : 0,
					"hidden" : 0,
					"source" : [ "obj-4", 0 ]
				}

			}
, 			{
				"patchline" : 				{
					"destination" : [ "obj-9", 0 ],
					"disabled" : 0,
					"hidden" : 0,
					"source" : [ "obj-5", 0 ]
				}

			}
, 			{
				"patchline" : 				{
					"destination" : [ "obj-1", 0 ],
					"disabled" : 0,
					"hidden" : 0,
					"source" : [ "obj-6", 0 ]
				}

			}
, 			{
				"patchline" : 				{
					"destination" : [ "obj-12", 0 ],
					"disabled" : 0,
					"hidden" : 0,
					"source" : [ "obj-6", 0 ]
				}

			}
, 			{
				"patchline" : 				{
					"destination" : [ "obj-13", 0 ],
					"disabled" : 0,
					"hidden" : 0,
					"source" : [ "obj-6", 0 ]
				}

			}
, 			{
				"patchline" : 				{
					"destination" : [ "obj-14", 0 ],
					"disabled" : 0,
					"hidden" : 0,
					"source" : [ "obj-6", 0 ]
				}

			}
, 			{
				"patchline" : 				{
					"destination" : [ "obj-15", 0 ],
					"disabled" : 0,
					"hidden" : 0,
					"source" : [ "obj-6", 0 ]
				}

			}
, 			{
				"patchline" : 				{
					"destination" : [ "obj-16", 0 ],
					"disabled" : 0,
					"hidden" : 0,
					"source" : [ "obj-6", 0 ]
				}

			}
, 			{
				"patchline" : 				{
					"destination" : [ "obj-4", 0 ],
					"disabled" : 0,
					"hidden" : 0,
					"source" : [ "obj-6", 0 ]
				}

			}
, 			{
				"patchline" : 				{
					"destination" : [ "obj-5", 0 ],
					"disabled" : 0,
					"hidden" : 0,
					"source" : [ "obj-6", 0 ]
				}

			}
 ],
		"dependency_cache" : [ 			{
				"name" : "tcg_abs.maxpat",
				"bootpath" : "/Users/Rodrigo/Dropbox/Patches/Cut Glove",
				"patcherrelativepath" : ".",
				"type" : "JSON",
				"implicit" : 1
			}
, 			{
				"name" : "tcg~.maxpat",
				"bootpath" : "/Users/Rodrigo/Dropbox/Patches/Cut Glove",
				"patcherrelativepath" : ".",
				"type" : "JSON",
				"implicit" : 1
			}
, 			{
				"name" : "voicedrive~.mxo",
				"type" : "iLaX"
			}
 ]
	}

}
