{
	"patcher" : 	{
		"fileversion" : 1,
		"appversion" : 		{
			"major" : 7,
			"minor" : 1,
			"revision" : 0,
			"architecture" : "x86",
			"modernui" : 1
		}
,
		"rect" : [ 567.0, 125.0, 535.0, 567.0 ],
		"bglocked" : 0,
		"openinpresentation" : 0,
		"default_fontsize" : 12.0,
		"default_fontface" : 0,
		"default_fontname" : "Arial",
		"gridonopen" : 1,
		"gridsize" : [ 15.0, 15.0 ],
		"gridsnaponopen" : 1,
		"objectsnaponopen" : 1,
		"statusbarvisible" : 2,
		"toolbarvisible" : 1,
		"lefttoolbarpinned" : 0,
		"toptoolbarpinned" : 0,
		"righttoolbarpinned" : 0,
		"bottomtoolbarpinned" : 0,
		"toolbars_unpinned_last_save" : 0,
		"tallnewobj" : 0,
		"boxanimatetime" : 200,
		"enablehscroll" : 1,
		"enablevscroll" : 1,
		"devicewidth" : 0.0,
		"description" : "",
		"digest" : "",
		"tags" : "",
		"style" : "",
		"subpatcher_template" : "",
		"boxes" : [ 			{
				"box" : 				{
					"fontname" : "Arial",
					"fontsize" : 12.0,
					"id" : "obj-16",
					"linecount" : 6,
					"maxclass" : "comment",
					"numinlets" : 1,
					"numoutlets" : 0,
					"patching_rect" : [ 179.0, 33.0, 332.0, 87.0 ],
					"style" : "",
					"text" : "Generate a bang based on incoming audio.\n\n@thresh = value audio must exceed and then return below before being triggered again(min, max)\n@lockout = time before a bang can be triggered again (time in ms)"
				}

			}
, 			{
				"box" : 				{
					"fontname" : "Arial",
					"fontsize" : 12.0,
					"id" : "obj-13",
					"maxclass" : "newobj",
					"numinlets" : 1,
					"numoutlets" : 2,
					"outlettype" : [ "float", "float" ],
					"patching_rect" : [ 261.0, 239.993866, 63.0, 22.0 ],
					"style" : "",
					"text" : "unpack f f"
				}

			}
, 			{
				"box" : 				{
					"fontname" : "Arial",
					"fontsize" : 12.0,
					"id" : "obj-8",
					"maxclass" : "newobj",
					"numinlets" : 3,
					"numoutlets" : 3,
					"outlettype" : [ "", "", "" ],
					"patching_rect" : [ 261.0, 200.329483, 226.0, 22.0 ],
					"style" : "",
					"text" : "route thresh lockout"
				}

			}
, 			{
				"box" : 				{
					"color" : [ 1.0, 0.0, 0.0, 1.0 ],
					"fontname" : "Arial",
					"fontsize" : 12.0,
					"id" : "obj-31",
					"maxclass" : "newobj",
					"numinlets" : 1,
					"numoutlets" : 2,
					"outlettype" : [ "", "" ],
					"patching_rect" : [ 261.0, 160.6651, 226.0, 22.0 ],
					"style" : "",
					"text" : "patcherargs @thresh 0.5 5. @lockout 50"
				}

			}
, 			{
				"box" : 				{
					"comment" : "bang output",
					"id" : "obj-6",
					"maxclass" : "outlet",
					"numinlets" : 1,
					"numoutlets" : 0,
					"patching_rect" : [ 45.000008, 502.980133, 30.0, 30.0 ],
					"style" : ""
				}

			}
, 			{
				"box" : 				{
					"comment" : "audio input",
					"id" : "obj-4",
					"maxclass" : "inlet",
					"numinlets" : 0,
					"numoutlets" : 1,
					"outlettype" : [ "" ],
					"patching_rect" : [ 45.000008, 33.0, 30.0, 30.0 ],
					"style" : ""
				}

			}
, 			{
				"box" : 				{
					"fontname" : "Arial",
					"fontsize" : 12.0,
					"id" : "obj-17",
					"maxclass" : "comment",
					"numinlets" : 1,
					"numoutlets" : 0,
					"patching_rect" : [ 72.750008, 35.5, 69.0, 20.0 ],
					"style" : "",
					"text" : "audio input"
				}

			}
, 			{
				"box" : 				{
					"fontname" : "Arial",
					"fontsize" : 12.0,
					"id" : "obj-15",
					"maxclass" : "comment",
					"numinlets" : 1,
					"numoutlets" : 0,
					"patching_rect" : [ 85.750008, 507.980133, 81.0, 20.0 ],
					"style" : "",
					"text" : "attack (bang)"
				}

			}
, 			{
				"box" : 				{
					"fontname" : "Arial",
					"fontsize" : 12.0,
					"id" : "obj-72",
					"maxclass" : "newobj",
					"numinlets" : 2,
					"numoutlets" : 1,
					"outlettype" : [ "bang" ],
					"patching_rect" : [ 103.375, 417.651367, 45.750008, 22.0 ],
					"style" : "",
					"text" : "delay"
				}

			}
, 			{
				"box" : 				{
					"fontname" : "Arial",
					"fontsize" : 12.0,
					"id" : "obj-71",
					"maxclass" : "newobj",
					"numinlets" : 2,
					"numoutlets" : 2,
					"outlettype" : [ "bang", "bang" ],
					"patching_rect" : [ 45.000008, 457.315765, 77.374992, 22.0 ],
					"style" : "",
					"text" : "onebang 1"
				}

			}
, 			{
				"box" : 				{
					"fontname" : "Arial",
					"fontsize" : 12.0,
					"id" : "obj-43",
					"linecount" : 2,
					"maxclass" : "comment",
					"numinlets" : 1,
					"numoutlets" : 0,
					"patching_rect" : [ 166.0, 412.151367, 119.0, 33.0 ],
					"style" : "",
					"text" : "Minimum time between each attack"
				}

			}
, 			{
				"box" : 				{
					"fontname" : "Arial",
					"fontsize" : 12.0,
					"id" : "obj-3",
					"maxclass" : "newobj",
					"numinlets" : 1,
					"numoutlets" : 2,
					"outlettype" : [ "bang", "bang" ],
					"patching_rect" : [ 45.000008, 417.651367, 44.0, 22.0 ],
					"style" : "",
					"text" : "edge~"
				}

			}
, 			{
				"box" : 				{
					"fontname" : "Arial",
					"fontsize" : 12.0,
					"id" : "obj-2",
					"maxclass" : "comment",
					"numinlets" : 1,
					"numoutlets" : 0,
					"patching_rect" : [ 133.0, 239.993866, 111.0, 20.0 ],
					"style" : "",
					"text" : "volume differential "
				}

			}
, 			{
				"box" : 				{
					"fontname" : "Arial",
					"fontsize" : 12.0,
					"id" : "obj-118",
					"maxclass" : "newobj",
					"numinlets" : 3,
					"numoutlets" : 1,
					"outlettype" : [ "signal" ],
					"patching_rect" : [ 45.000008, 298.658234, 80.25, 22.0 ],
					"style" : "",
					"text" : "thresh~"
				}

			}
, 			{
				"box" : 				{
					"fontname" : "Arial",
					"fontsize" : 12.0,
					"id" : "obj-119",
					"maxclass" : "newobj",
					"numinlets" : 2,
					"numoutlets" : 1,
					"outlettype" : [ "signal" ],
					"patching_rect" : [ 45.000008, 377.987, 38.0, 22.0 ],
					"style" : "",
					"text" : ">~ 0."
				}

			}
, 			{
				"box" : 				{
					"fontname" : "Arial",
					"fontsize" : 12.0,
					"id" : "obj-120",
					"maxclass" : "newobj",
					"numinlets" : 1,
					"numoutlets" : 1,
					"outlettype" : [ "signal" ],
					"patching_rect" : [ 45.000008, 338.322601, 57.0, 22.0 ],
					"style" : "",
					"text" : "change~"
				}

			}
, 			{
				"box" : 				{
					"fontname" : "Arial",
					"fontsize" : 12.0,
					"id" : "obj-94",
					"maxclass" : "newobj",
					"numinlets" : 3,
					"numoutlets" : 1,
					"outlettype" : [ "signal" ],
					"patching_rect" : [ 45.000008, 121.000717, 82.0, 22.0 ],
					"style" : "",
					"text" : "slide~ 5 4410"
				}

			}
, 			{
				"box" : 				{
					"fontname" : "Arial",
					"fontsize" : 12.0,
					"id" : "obj-95",
					"maxclass" : "newobj",
					"numinlets" : 2,
					"numoutlets" : 1,
					"outlettype" : [ "signal" ],
					"patching_rect" : [ 45.000008, 239.993866, 80.25, 22.0 ],
					"style" : "",
					"text" : "-~"
				}

			}
, 			{
				"box" : 				{
					"fontname" : "Arial",
					"fontsize" : 12.0,
					"id" : "obj-96",
					"maxclass" : "newobj",
					"numinlets" : 1,
					"numoutlets" : 1,
					"outlettype" : [ "signal" ],
					"patching_rect" : [ 106.25, 200.329483, 48.0, 22.0 ],
					"style" : "",
					"text" : "atodb~"
				}

			}
, 			{
				"box" : 				{
					"fontname" : "Arial",
					"fontsize" : 12.0,
					"id" : "obj-97",
					"maxclass" : "newobj",
					"numinlets" : 1,
					"numoutlets" : 1,
					"outlettype" : [ "signal" ],
					"patching_rect" : [ 45.000008, 200.329483, 48.0, 22.0 ],
					"style" : "",
					"text" : "atodb~"
				}

			}
, 			{
				"box" : 				{
					"fontname" : "Arial",
					"fontsize" : 12.0,
					"id" : "obj-98",
					"maxclass" : "newobj",
					"numinlets" : 3,
					"numoutlets" : 1,
					"outlettype" : [ "signal" ],
					"patching_rect" : [ 106.25, 160.6651, 82.0, 22.0 ],
					"style" : "",
					"text" : "slide~ 1000 1"
				}

			}
, 			{
				"box" : 				{
					"fontname" : "Arial",
					"fontsize" : 12.0,
					"id" : "obj-99",
					"maxclass" : "newobj",
					"numinlets" : 1,
					"numoutlets" : 1,
					"outlettype" : [ "signal" ],
					"patching_rect" : [ 45.000008, 81.336349, 37.0, 22.0 ],
					"style" : "",
					"text" : "abs~"
				}

			}
 ],
		"lines" : [ 			{
				"patchline" : 				{
					"destination" : [ "obj-120", 0 ],
					"disabled" : 0,
					"hidden" : 0,
					"source" : [ "obj-118", 0 ]
				}

			}
, 			{
				"patchline" : 				{
					"destination" : [ "obj-3", 0 ],
					"disabled" : 0,
					"hidden" : 0,
					"source" : [ "obj-119", 0 ]
				}

			}
, 			{
				"patchline" : 				{
					"destination" : [ "obj-119", 0 ],
					"disabled" : 0,
					"hidden" : 0,
					"source" : [ "obj-120", 0 ]
				}

			}
, 			{
				"patchline" : 				{
					"color" : [ 1.0, 0.0, 0.0, 1.0 ],
					"destination" : [ "obj-118", 2 ],
					"disabled" : 0,
					"hidden" : 0,
					"midpoints" : [ 314.5, 285.82605, 115.750008, 285.82605 ],
					"source" : [ "obj-13", 1 ]
				}

			}
, 			{
				"patchline" : 				{
					"color" : [ 1.0, 0.0, 0.0, 1.0 ],
					"destination" : [ "obj-118", 1 ],
					"disabled" : 0,
					"hidden" : 0,
					"midpoints" : [ 270.5, 272.82605, 85.125008, 272.82605 ],
					"source" : [ "obj-13", 0 ]
				}

			}
, 			{
				"patchline" : 				{
					"destination" : [ "obj-71", 0 ],
					"disabled" : 0,
					"hidden" : 0,
					"source" : [ "obj-3", 0 ]
				}

			}
, 			{
				"patchline" : 				{
					"color" : [ 1.0, 0.0, 0.0, 1.0 ],
					"destination" : [ "obj-8", 0 ],
					"disabled" : 0,
					"hidden" : 0,
					"midpoints" : [ 477.5, 190.997284, 270.5, 190.997284 ],
					"source" : [ "obj-31", 1 ]
				}

			}
, 			{
				"patchline" : 				{
					"color" : [ 1.0, 1.0, 0.0, 1.0 ],
					"destination" : [ "obj-99", 0 ],
					"disabled" : 0,
					"hidden" : 0,
					"source" : [ "obj-4", 0 ]
				}

			}
, 			{
				"patchline" : 				{
					"color" : [ 0.0, 0.0, 0.0, 1.0 ],
					"destination" : [ "obj-6", 0 ],
					"disabled" : 0,
					"hidden" : 0,
					"source" : [ "obj-71", 0 ]
				}

			}
, 			{
				"patchline" : 				{
					"color" : [ 0.0, 0.0, 0.0, 1.0 ],
					"destination" : [ "obj-72", 0 ],
					"disabled" : 0,
					"hidden" : 0,
					"midpoints" : [ 54.500008, 490.315765, 158.5, 490.315765, 158.5, 409.315765, 112.875, 409.315765 ],
					"source" : [ "obj-71", 0 ]
				}

			}
, 			{
				"patchline" : 				{
					"destination" : [ "obj-71", 1 ],
					"disabled" : 0,
					"hidden" : 0,
					"source" : [ "obj-72", 0 ]
				}

			}
, 			{
				"patchline" : 				{
					"color" : [ 1.0, 0.0, 0.0, 1.0 ],
					"destination" : [ "obj-13", 0 ],
					"disabled" : 0,
					"hidden" : 0,
					"source" : [ "obj-8", 0 ]
				}

			}
, 			{
				"patchline" : 				{
					"color" : [ 1.0, 0.0, 0.0, 1.0 ],
					"destination" : [ "obj-72", 1 ],
					"disabled" : 0,
					"hidden" : 0,
					"midpoints" : [ 374.0, 369.490417, 139.625, 369.490417 ],
					"source" : [ "obj-8", 1 ]
				}

			}
, 			{
				"patchline" : 				{
					"destination" : [ "obj-97", 0 ],
					"disabled" : 0,
					"hidden" : 0,
					"source" : [ "obj-94", 0 ]
				}

			}
, 			{
				"patchline" : 				{
					"destination" : [ "obj-98", 0 ],
					"disabled" : 0,
					"hidden" : 0,
					"midpoints" : [ 54.500008, 151.158417, 115.75, 151.158417 ],
					"source" : [ "obj-94", 0 ]
				}

			}
, 			{
				"patchline" : 				{
					"destination" : [ "obj-118", 0 ],
					"disabled" : 0,
					"hidden" : 0,
					"source" : [ "obj-95", 0 ]
				}

			}
, 			{
				"patchline" : 				{
					"destination" : [ "obj-95", 1 ],
					"disabled" : 0,
					"hidden" : 0,
					"source" : [ "obj-96", 0 ]
				}

			}
, 			{
				"patchline" : 				{
					"destination" : [ "obj-95", 0 ],
					"disabled" : 0,
					"hidden" : 0,
					"source" : [ "obj-97", 0 ]
				}

			}
, 			{
				"patchline" : 				{
					"destination" : [ "obj-96", 0 ],
					"disabled" : 0,
					"hidden" : 0,
					"source" : [ "obj-98", 0 ]
				}

			}
, 			{
				"patchline" : 				{
					"destination" : [ "obj-94", 0 ],
					"disabled" : 0,
					"hidden" : 0,
					"source" : [ "obj-99", 0 ]
				}

			}
 ],
		"dependency_cache" : [  ],
		"autosave" : 0
	}

}
