{
	"patcher" : 	{
		"fileversion" : 1,
		"appversion" : 		{
			"major" : 7,
			"minor" : 1,
			"revision" : 0,
			"architecture" : "x86",
			"modernui" : 1
		}
,
		"rect" : [ 43.0, 59.0, 825.0, 688.0 ],
		"bgcolor" : [ 0.9, 0.9, 0.9, 1.0 ],
		"editing_bgcolor" : [ 0.9, 0.9, 0.9, 1.0 ],
		"bglocked" : 0,
		"openinpresentation" : 0,
		"default_fontsize" : 10.0,
		"default_fontface" : 0,
		"default_fontname" : "Arial Bold",
		"gridonopen" : 2,
		"gridsize" : [ 15.0, 15.0 ],
		"gridsnaponopen" : 1,
		"objectsnaponopen" : 1,
		"statusbarvisible" : 2,
		"toolbarvisible" : 1,
		"lefttoolbarpinned" : 2,
		"toptoolbarpinned" : 2,
		"righttoolbarpinned" : 2,
		"bottomtoolbarpinned" : 1,
		"toolbars_unpinned_last_save" : 7,
		"tallnewobj" : 0,
		"boxanimatetime" : 200,
		"enablehscroll" : 1,
		"enablevscroll" : 1,
		"devicewidth" : 0.0,
		"description" : "",
		"digest" : "",
		"tags" : "",
		"style" : "",
		"subpatcher_template" : "<none>",
		"boxes" : [ 			{
				"box" : 				{
					"fontface" : 0,
					"fontname" : "Arial Bold",
					"fontsize" : 10.0,
					"id" : "obj-13",
					"maxclass" : "newobj",
					"numinlets" : 0,
					"numoutlets" : 1,
					"outlettype" : [ "" ],
					"patching_rect" : [ 553.0, 17.0, 239.0, 20.0 ],
					"style" : "",
					"text" : "in 3 @default 1.6 @comment K 0..2 (not clipped)"
				}

			}
, 			{
				"box" : 				{
					"fontface" : 0,
					"fontname" : "Arial Bold",
					"fontsize" : 10.0,
					"id" : "obj-7",
					"maxclass" : "newobj",
					"numinlets" : 0,
					"numoutlets" : 1,
					"outlettype" : [ "" ],
					"patching_rect" : [ 273.0, 17.0, 263.0, 20.0 ],
					"style" : "",
					"text" : "in 2 @default 3520 @comment cutoff Hz (not clipped)"
				}

			}
, 			{
				"box" : 				{
					"fontface" : 0,
					"fontname" : "Arial Bold",
					"fontsize" : 10.0,
					"id" : "obj-1",
					"maxclass" : "newobj",
					"numinlets" : 0,
					"numoutlets" : 1,
					"outlettype" : [ "" ],
					"patching_rect" : [ 30.0, 17.0, 67.0, 20.0 ],
					"style" : "",
					"text" : "in 1 mono X"
				}

			}
, 			{
				"box" : 				{
					"fontface" : 0,
					"fontname" : "Arial Bold",
					"fontsize" : 10.0,
					"id" : "obj-4",
					"maxclass" : "newobj",
					"numinlets" : 1,
					"numoutlets" : 0,
					"patching_rect" : [ 30.0, 645.0, 74.0, 20.0 ],
					"style" : "",
					"text" : "out 1 mono Y"
				}

			}
, 			{
				"box" : 				{
					"code" : "/*\nfor sm_sallenkey filter & effect abstraction\nSurreal Machines, 2015\n*/\r\n\r\n//\t//\t//\tcustom functions\r\n\r\nrequire(\"sm_sallenkey_functions\");\r\n\r\n//\t//\t//\tdeclarations\r\n\r\n//\tdefaults:\r\n//\t\t- 12dB lowpass nonlinear sallen & key filter\r\n//\t\t- 4x oversampled sine shaping post nonlinearity\r\n\r\n// (0) = bypass entire filter section & do not use the cpu\r\nParam\t filter(1, min=0, max=3);\t\t\t// choose lowpass (1), bandpass (2), highpass (3)\r\n// one section or two cascaded\r\nParam\t slope(0, min=0, max=1);\t\t\t// 12dB (0) or 24dB (1) filter slope\r\n// nonlinear (tanh) filters (1), pure linear filter sections (0)\r\nParam\t nonlinear(1, min=0, max=1);\r\n\r\n// (oversampled) nonlinearity is pre filter (0) or post filter (1) ?\r\nParam\t order(1, min=0, max=1);\r\n// saturation for (pre/post) nonlinearity\r\nParam\t drive(0, min=0, max=1);\t\t\t// % 0..1 (0 does not mean none !)\r\n// (0) nonlinearity bypassed & do not use the cpu, (1) 1x or (2) 4x oversampling for (pre/post) nonlinearity\r\nParam\t oversampling(2, min=0, max=2);\r\n\r\n//\t//\t//\tsetup\r\n\r\nfilt\t = int(filter);\r\nft\t\t = maximum(filt, 1);\r\nslp\t\t = int(slope);\r\natten\t = expsmooth((1 / (slp + 2)), 0.015111);\r\nnl\t\t = int(nonlinear);\r\n// clip and scale at param rate 0..1 = pi/10..pi, then smooth\r\ndrv\t\t = logsmooth((((drive * 0.9) + 0.1) * pi), 0.022666);\r\nover\t = int(oversampling);\r\nord\t\t = int(order);\r\n\r\n//\t//\t//\tinputs\r\n\r\nX\t\t \t= in1;\r\nC\t\t \t= in2;\t\t\t\t\t\t\t// Hz\r\nK\t\t \t= in3;\t\t\t\t\t\t\t// 0..2\r\n\r\n// K scale (for rsinNonlin)\r\nif ((K > 1) && (drive >= 0.5)) {\t\t\t// this is problematic, should really appear before smoothers...\r\n\t\t\t\t\t\t\t\t\t\t\t// ...but that would be messy for the reusable abstractions\r\n\tkitten\t= (((clip(drive, 0.5, 1) - 0.5) * 0.1997) * ((slp * 0.92) + 1.07)) + ((over != 2) * 0.07053);\r\n\tkat\t\t= expsmooth((1 - (kitten * kitten)), 0.015111);\r\n\r\n\tK\t\t= interp((clip(K, 1, 2) - 1), K, (K * kat), mode=\"linear\");\t// mode=\"cosine\"\r\n\r\n}\r\n\r\nK\t\t\t= K * 0.95;\t\t\t\t\t\t//\r\n\r\nY\t\t \t= 0;\r\n\r\n//\t//\t//\tprocessing\r\n\r\noverpre\t\t = ((over == 0) || (ord == 1)) ? 0 : over;\r\nX\t\t\t = rsinNonlin(X, drv, overpre);\t// only processes pre filter if (ord == 0)\r\n\r\nif (filt > 0) {\t\t\t\t\t\t\t\t// if entire filter section is active\r\n\r\n\ta1, a2, a3, a4, a5\t\t\t\t\t\t= skfTanCoef(C, K);\r\n\r\n\tif (slp >= 0) {\r\n\t\tY\t = skfTanNlto( (X * sqrt1_2),\ta1, a2, a3, a4, a5, K, nl, ft);\r\n\t}\r\n\r\n\t// this is wrong, we should really recompute the coefficients for second filter in the\r\n\t// cascade, but trying to save cpu here; fixing this is on my 'todo' list\r\n\tif (slp >= 1) {\r\n\t\tY\t = skfTanNlto( (Y * sqrt1_2),\ta1, a2, a3, a4, a5, K, nl, ft);\r\n\t}\r\n\r\n\tY\t\t = Y * atten;\r\n\r\n} else {\t\t\t\t\t\t\t\t\t// if entire filter section is bypassed\r\n\r\n\tY\t\t = X;\r\n\r\n}\r\n\r\noverpost\t = ((over == 0) || (ord == 0)) ? 0 : over;\r\nY\t\t\t = rsinNonlin(Y, drv, overpost);// only processes post filter if (ord == 1)\r\n\r\n//\t//\t//\toutput\r\n\r\nout1\t\t = dcblock(Y);\r\n",
					"fontface" : 0,
					"fontname" : "Arial Bold",
					"fontsize" : 10.0,
					"id" : "obj-3",
					"maxclass" : "codebox",
					"numinlets" : 3,
					"numoutlets" : 1,
					"outlettype" : [ "" ],
					"patching_rect" : [ 30.0, 54.0, 762.0, 572.0 ],
					"style" : ""
				}

			}
 ],
		"lines" : [ 			{
				"patchline" : 				{
					"destination" : [ "obj-3", 0 ],
					"disabled" : 0,
					"hidden" : 0,
					"midpoints" : [ 39.5, 45.0, 39.5, 45.0 ],
					"source" : [ "obj-1", 0 ]
				}

			}
, 			{
				"patchline" : 				{
					"destination" : [ "obj-3", 2 ],
					"disabled" : 0,
					"hidden" : 0,
					"midpoints" : [ 562.5, 45.0, 782.5, 45.0 ],
					"source" : [ "obj-13", 0 ]
				}

			}
, 			{
				"patchline" : 				{
					"destination" : [ "obj-4", 0 ],
					"disabled" : 0,
					"hidden" : 0,
					"midpoints" : [ 39.5, 635.0, 39.5, 635.0 ],
					"source" : [ "obj-3", 0 ]
				}

			}
, 			{
				"patchline" : 				{
					"destination" : [ "obj-3", 1 ],
					"disabled" : 0,
					"hidden" : 0,
					"midpoints" : [ 282.5, 45.0, 411.0, 45.0 ],
					"source" : [ "obj-7", 0 ]
				}

			}
 ],
		"autosave" : 0
	}

}
